<svg width="51" height="94" viewBox="0 0 51 94" fill="none" xmlns="http://www.w3.org/2000/svg">
<g clip-path="url(#clip0)">
<path d="M13.4527 94.0043C13.4527 94.0043 10.7688 25.8342 45.7682 9.36133L46.8146 11.3504C46.8146 11.3504 16.7373 14.927 15.5408 94.0043H13.4527Z" fill="#855451"/>
<path d="M36.3549 17.0516L30.1143 17.9855L37.1526 0.826231L42.666 -0.00488281C42.666 -0.00488281 34.098 14.3202 36.3549 17.0516Z" fill="#778673"/>
<path d="M27.5995 29.9248L21.2087 33.7395L21.1289 11.8831L26.7596 8.5166C26.7596 8.5166 23.9161 27.9544 27.5995 29.9248Z" fill="#778673"/>
<path d="M20.557 45.5016L14.1803 51.3941L8.78418 26.428L14.4149 21.2266C14.4149 21.2266 15.8695 44.1289 20.557 45.5016Z" fill="#778673"/>
<path d="M18.1824 66.9006L12.1998 75.2351L0 47.5842L5.27878 40.2256C5.27878 40.2256 12.4251 66.4197 18.1824 66.9006Z" fill="#778673"/>
<path d="M33.1601 15.6465L31.2832 21.6604L49.3624 17.22L50.9906 11.9111C50.9906 11.9111 35.5062 18.2566 33.1601 15.6465Z" fill="#778673"/>
<path d="M26.0326 28.1832L23.9023 35.1869L44.933 30.0135L46.8099 23.8408C46.8099 23.8408 28.8151 31.2181 26.0326 28.1832Z" fill="#778673"/>
<path d="M17.5958 45.2445L15.0244 53.6724L40.3625 47.4437L42.6476 40.001C42.6476 40.001 20.9601 48.9004 17.5958 45.2445Z" fill="#778673"/>
<path d="M15.4329 66.2421L14.335 76.5983L42.3711 63.7487L43.3377 54.6064C43.3377 54.6064 20.144 69.7439 15.4329 66.2421Z" fill="#778673"/>
</g>
<defs>
<clipPath id="clip0">
<rect width="51" height="94" fill="white"/>
</clipPath>
</defs>
</svg>
