<svg width="51" height="94" viewBox="0 0 51 94" fill="none" xmlns="http://www.w3.org/2000/svg">
<g clip-path="url(#clip0)">
<path d="M13.4527 94.0048C13.4527 94.0048 10.7688 25.8347 45.7682 9.36182L46.8146 11.3509C46.8146 11.3509 16.7373 14.9275 15.5408 94.0048H13.4527Z" fill="#855451"/>
<path d="M36.3549 17.0521L30.1143 17.986L37.1526 0.82672L42.666 -0.00439453C42.666 -0.00439453 34.098 14.3207 36.3549 17.0521Z" fill="#778673"/>
<path d="M27.5995 29.9248L21.2087 33.7395L21.1289 11.8831L26.7596 8.5166C26.7596 8.5166 23.9161 27.9544 27.5995 29.9248Z" fill="#778673"/>
<path d="M20.557 45.5011L14.1803 51.3937L8.78418 26.4275L14.4149 21.2261C14.4149 21.2261 15.8695 44.1284 20.557 45.5011Z" fill="#778673"/>
<path d="M18.1824 66.9002L12.1998 75.2346L0 47.5837L5.27878 40.2251C5.27878 40.2251 12.4251 66.4192 18.1824 66.9002Z" fill="#778673"/>
<path d="M33.1601 15.6465L31.2832 21.6604L49.3624 17.22L50.9906 11.9111C50.9906 11.9111 35.5062 18.2566 33.1601 15.6465Z" fill="#778673"/>
<path d="M26.0326 28.1832L23.9023 35.1869L44.933 30.0135L46.8099 23.8408C46.8099 23.8408 28.8151 31.2181 26.0326 28.1832Z" fill="#778673"/>
<path d="M17.5958 45.2445L15.0244 53.6724L40.3625 47.4437L42.6476 40.001C42.6476 40.001 20.9601 48.9004 17.5958 45.2445Z" fill="#778673"/>
<path d="M15.4329 66.2416L14.335 76.5978L42.3711 63.7482L43.3377 54.606C43.3377 54.606 20.144 69.7435 15.4329 66.2416Z" fill="#778673"/>
</g>
<defs>
<clipPath id="clip0">
<rect width="51" height="94" fill="white"/>
</clipPath>
</defs>
</svg>
