<svg width="201" height="393" viewBox="0 0 201 393" fill="none" xmlns="http://www.w3.org/2000/svg">
<rect x="93" y="126" width="9" height="267" fill="url(#paint0_linear)"/>
<ellipse cx="84.7613" cy="50.3687" rx="23.8214" ry="45.1498" transform="rotate(-18.4571 84.7613 50.3687)" fill="url(#paint1_linear)"/>
<ellipse cx="125.499" cy="52.9373" rx="23.8214" ry="45.1498" transform="rotate(34.8196 125.499 52.9373)" fill="url(#paint2_linear)"/>
<ellipse cx="152.738" cy="86.4586" rx="23.8214" ry="45.1498" transform="rotate(83.7285 152.738 86.4586)" fill="url(#paint3_linear)"/>
<ellipse cx="130.679" cy="134.724" rx="23.8214" ry="45.1498" transform="rotate(142.259 130.679 134.724)" fill="url(#paint4_linear)"/>
<ellipse cx="54.2547" cy="73.5569" rx="23.8214" ry="45.1498" transform="rotate(122.659 54.2547 73.5569)" fill="url(#paint5_linear)"/>
<ellipse cx="50.3024" cy="107.095" rx="23.8214" ry="45.1498" transform="rotate(71.9902 50.3024 107.095)" fill="url(#paint6_linear)"/>
<ellipse cx="78.332" cy="139.247" rx="23.8214" ry="45.1498" transform="rotate(24.4584 78.332 139.247)" fill="url(#paint7_linear)"/>
<circle cx="100.5" cy="91.708" r="18.5" fill="#B8BB9C"/>
<defs>
<linearGradient id="paint0_linear" x1="97.5" y1="126" x2="97.5" y2="393" gradientUnits="userSpaceOnUse">
<stop stop-color="#778673"/>
<stop offset="1" stop-color="#778673" stop-opacity="0"/>
</linearGradient>
<linearGradient id="paint1_linear" x1="84.7613" y1="5.21885" x2="84.7613" y2="95.5185" gradientUnits="userSpaceOnUse">
<stop stop-color="#C98C6F"/>
<stop offset="1" stop-color="#C98C6F" stop-opacity="0.9"/>
</linearGradient>
<linearGradient id="paint2_linear" x1="125.499" y1="7.7875" x2="125.499" y2="98.0871" gradientUnits="userSpaceOnUse">
<stop stop-color="#C98C6F"/>
<stop offset="1" stop-color="#C98C6F" stop-opacity="0.9"/>
</linearGradient>
<linearGradient id="paint3_linear" x1="152.738" y1="41.3088" x2="152.738" y2="131.608" gradientUnits="userSpaceOnUse">
<stop stop-color="#C98C6F"/>
<stop offset="1" stop-color="#C98C6F" stop-opacity="0.9"/>
</linearGradient>
<linearGradient id="paint4_linear" x1="130.679" y1="89.5739" x2="130.679" y2="179.874" gradientUnits="userSpaceOnUse">
<stop stop-color="#C98C6F"/>
<stop offset="1" stop-color="#C98C6F" stop-opacity="0.9"/>
</linearGradient>
<linearGradient id="paint5_linear" x1="54.2547" y1="28.4071" x2="54.2547" y2="118.707" gradientUnits="userSpaceOnUse">
<stop stop-color="#C98C6F"/>
<stop offset="1" stop-color="#C98C6F" stop-opacity="0.9"/>
</linearGradient>
<linearGradient id="paint6_linear" x1="50.3024" y1="61.9452" x2="50.3024" y2="152.245" gradientUnits="userSpaceOnUse">
<stop stop-color="#C98C6F"/>
<stop offset="1" stop-color="#C98C6F" stop-opacity="0.9"/>
</linearGradient>
<linearGradient id="paint7_linear" x1="78.332" y1="94.0973" x2="78.332" y2="184.397" gradientUnits="userSpaceOnUse">
<stop stop-color="#C98C6F"/>
<stop offset="1" stop-color="#C98C6F" stop-opacity="0.9"/>
</linearGradient>
</defs>
</svg>
