<svg width="55" height="106" viewBox="0 0 55 106" fill="none" xmlns="http://www.w3.org/2000/svg">
<g clip-path="url(#clip0)">
<path d="M7.38896 105.989C7.38896 105.989 73.5358 16.0566 18.4199 16.0566L18.3136 17.6247C69.6721 16.2665 5.64062 104.432 5.64062 104.432" fill="#855451"/>
<path d="M17.0483 20.1532C14.817 22.1189 9.94873 24.0293 1.0332 17.4809C1.0332 17.4809 17.2608 4.41722 18.5358 15.9901C18.6256 16.772 18.5357 17.5671 18.2748 18.2971C18.014 19.0271 17.5912 19.6668 17.0483 20.1532Z" fill="#778673"/>
<path d="M29.3736 17.1274C28.2435 14.2342 27.7895 8.31524 35.4879 0C35.4879 0 42.7034 21.136 32.5902 19.7777C31.8979 19.697 31.2363 19.4096 30.6718 18.9445C30.1072 18.4793 29.6596 17.8527 29.3736 17.1274Z" fill="#778673"/>
<path d="M39.5065 30.0914C40.8008 27.2314 44.4907 23.1345 54.9613 24.7357C54.9613 24.7357 45.1379 44.4471 39.6804 34.5969C39.3104 33.9284 39.0998 33.1609 39.0693 32.3706C39.0388 31.5803 39.1895 30.7946 39.5065 30.0914Z" fill="#778673"/>
<path d="M38.5404 51.3599C41.3513 51.2495 46.2678 52.9059 50.2282 64.1586C50.2282 64.1586 30.388 64.0592 35.208 53.7783C35.5315 53.0787 36.009 52.4876 36.5934 52.0635C37.1779 51.6394 37.8489 51.3969 38.5404 51.3599Z" fill="#778673"/>
<path d="M27.1433 73.6003C29.79 72.6175 34.977 72.7611 41.3811 82.3242C41.3811 82.3242 22.2364 88.3204 24.4774 76.9463C24.624 76.1693 24.9479 75.4505 25.4162 74.8628C25.8844 74.2752 26.4803 73.8396 27.1433 73.6003Z" fill="#778673"/>
<path d="M16.2663 91.1034C18.4976 89.1488 23.3659 87.2273 32.2814 93.7757C32.2814 93.7757 16.0635 106.85 14.7788 95.2776C14.6892 94.4941 14.7792 93.6974 15.04 92.9657C15.3007 92.234 15.7233 91.5922 16.2663 91.1034Z" fill="#778673"/>
<path d="M30.8129 22.3177C30.6583 25.5312 28.7554 30.9974 18.6035 34.4648C18.6035 34.4648 20.5354 11.8823 29.0162 18.3202C29.5956 18.7485 30.0664 19.3431 30.3817 20.0446C30.697 20.7461 30.8456 21.5299 30.8129 22.3177Z" fill="#778673"/>
<path d="M38.714 42.3824C37.043 44.9775 32.8218 48.3566 22.6699 44.8671C22.6699 44.8671 35.1111 27.1986 39.0907 37.9101C39.3728 38.6288 39.4865 39.4191 39.4204 40.2033C39.3544 40.9874 39.1109 41.7384 38.714 42.3824Z" fill="#778673"/>
<path d="M30.929 62.3808C28.3307 63.6176 23.2016 64.0372 16.0537 55.0926C16.0537 55.0926 34.6672 47.219 33.3052 58.7809C33.2161 59.5649 32.9502 60.309 32.5336 60.9401C32.117 61.5712 31.5641 62.0677 30.929 62.3808Z" fill="#778673"/>
<path d="M24.9595 76.5599C23.0276 78.8899 18.4588 81.6396 8.77051 76.7366C8.77051 76.7366 23.0469 60.9675 25.8675 72.1759C26.062 72.9339 26.0807 73.7367 25.9214 74.5054C25.7622 75.2741 25.4307 75.9822 24.9595 76.5599Z" fill="#778673"/>
<path d="M10.0167 95.951C7.21549 95.6197 2.53073 93.1903 0 81.4297C0 81.4297 19.6373 84.7425 13.6099 94.0958C13.2036 94.7352 12.6585 95.2426 12.0284 95.5679C11.3983 95.8932 10.705 96.0252 10.0167 95.951Z" fill="#778673"/>
</g>
<defs>
<clipPath id="clip0">
<rect width="55" height="106" fill="white"/>
</clipPath>
</defs>
</svg>
