<svg width="97" height="28" viewBox="0 0 97 28" fill="none" xmlns="http://www.w3.org/2000/svg">
<path d="M15.7629 4.6748L15.0244 24.4826" stroke="#31373C" stroke-linecap="round" stroke-linejoin="round"/>
<path d="M49.8038 27.374V16.5094L41.7359 5.05657L33.3889 16.5094V27.374H19.6239C27.3628 19.5635 19.6239 10.0508 19.6239 10.0508L15.7638 4.6748L11.0162 10.7267C11.0162 10.7267 3.24003 20.5461 11.0162 27.399H0.621094" stroke="#31373C" stroke-linecap="round" stroke-linejoin="round"/>
<path d="M15.0244 18.5059L11.5986 13.9248" stroke="#31373C" stroke-linecap="round" stroke-linejoin="round"/>
<path d="M15.1182 21.8914L18.2708 19.4131" stroke="#31373C" stroke-linecap="round" stroke-linejoin="round"/>
<path d="M67.4131 4.6748L68.1516 24.4826" stroke="#31373C" stroke-linecap="round" stroke-linejoin="round"/>
<path d="M49.8184 27.374H63.5523C55.8134 19.5635 63.5523 10.0508 63.5523 10.0508L67.4124 4.6748L72.16 10.7016C72.16 10.7016 79.9362 20.521 72.16 27.374H83.5" stroke="#31373C" stroke-linecap="round" stroke-linejoin="round"/>
<path d="M68.1514 18.5059L71.5771 13.9248" stroke="#31373C" stroke-linecap="round" stroke-linejoin="round"/>
<path d="M68.0517 21.8914L64.9053 19.4131" stroke="#31373C" stroke-linecap="round" stroke-linejoin="round"/>
</svg>
