<svg width="79" height="79" viewBox="0 0 79 79" fill="none" xmlns="http://www.w3.org/2000/svg">
<path d="M36.8214 10.9022C36.8214 10.9022 38.9228 1.70972 27.3035 4.0576L25.3254 6.2775V4.67064C25.3254 4.67064 12.3457 10.9748 11.1054 14.6831C11.1054 14.6831 17.1631 10.534 18.3986 17.2443C18.3986 17.2443 19.2313 18.9128 22.1654 19.0455C22.1654 19.0455 24.567 19.8465 23.2334 21.4471C20.7779 20.6957 18.4076 19.6895 16.1614 18.4451C16.1614 18.4451 11.3582 17.8447 10.091 18.5794C10.091 18.5794 7.89007 25.8474 9.28995 29.6536C9.28995 29.6536 9.62333 25.7842 11.8179 26.0512C14.0126 26.3182 20.6233 25.4508 18.8221 27.7892C18.8221 27.7892 14.5292 28.7167 11.75 28.5903L9.22201 31.3916L8.82227 38.4637C8.82227 38.4637 13.7582 33.2607 20.2299 34.0602C20.2299 34.0602 22.6978 36.0621 14.4249 36.3955C14.4249 36.3955 10.0231 36.7968 9.95513 39.9315C9.88719 43.0662 11.957 49.6043 11.957 49.6043C11.957 49.6043 12.758 45.6685 15.9607 44.4677C15.9607 44.4677 22.4308 39.5981 22.1638 41.3993C22.1638 41.3993 15.493 46.0019 14.0916 50.2726C12.6901 54.5433 15.3666 55.5372 18.1695 57.6702C18.1695 57.6702 29.2295 64.4152 30.0796 67.2655C30.0796 67.2655 31.6596 58.2168 26.9196 49.8049L27.7791 48.9533C27.7791 48.9533 34.3171 60.9471 31.0718 67.0159C31.0718 67.0159 36.4817 65.5575 39.7271 61.1825C39.7271 61.1825 43.7245 59.9185 46.6412 55.7742C46.6412 55.7742 47.5212 52.6142 41.6278 47.9184C41.6278 47.9184 28.7224 37.0275 34.8338 36.9532C34.8338 36.9532 51.171 49.037 50.4252 52.3203L53.4841 42.4737C53.4841 42.4737 36.6998 34.1282 38.0428 31.5828C39.3858 29.0374 53.9044 38.8855 53.4841 41.3551C53.0639 43.8246 55.8999 29.8037 55.8999 29.8037C55.8999 29.8037 36.052 26.3388 42.1397 25.1996C48.2275 24.0604 56.641 27.9662 56.641 27.9662L54.8097 18.0738L52.781 17.0341L43.3279 19.4594C43.3279 19.4594 37.7852 18.1702 51.3495 15.9945C51.3495 15.9945 53.0322 15.1287 55.9031 17.2443C55.9031 17.2443 58.1293 12.1883 50.2151 9.0662C50.2151 9.0662 47.5923 8.62064 46.7012 7.3282C45.8101 6.03576 43.6249 3.07642 37.8342 10.9022C37.8342 10.9022 37.1169 11.8075 36.8214 10.9022Z" fill="#778673"/>
<path d="M36.7894 53.0087C37.5599 52.5016 36.7102 49.8504 34.8916 47.0871C33.073 44.3238 30.9741 42.4947 30.2036 43.0018C29.4332 43.5089 30.2829 46.16 32.1015 48.9234C33.9201 51.6867 36.019 53.5157 36.7894 53.0087Z" fill="#EAD0A1"/>
<path d="M21.276 50.6772C21.8136 49.1633 21.7234 47.7494 21.0746 47.519C20.4258 47.2886 19.4641 48.329 18.9265 49.8429C18.3889 51.3568 18.4791 52.7708 19.1279 53.0011C19.7767 53.2315 20.7384 52.1911 21.276 50.6772Z" fill="#EAD0A1"/>
<path d="M26.2072 14.4996C26.8547 14.2655 26.9367 12.851 26.3904 11.3402C25.8442 9.82951 24.8764 8.7946 24.229 9.02872C23.5815 9.26284 23.4995 10.6773 24.0458 12.1881C24.5921 13.6988 25.5598 14.7337 26.2072 14.4996Z" fill="#EAD0A1"/>
<path d="M49.7277 8.96178C49.7277 8.96178 45.8978 -4.58198 36.8223 10.902L49.7277 8.96178Z" fill="#778673"/>
<path d="M48.3799 15.2559C53.3829 30.3207 65.6688 67.997 66.1381 75.3255H70.4264C70.4264 75.3255 50.7384 14.0733 48.5228 9.79834" fill="#778673"/>
<path d="M54.167 26.9756C54.167 26.9756 54.4672 27.9552 54.9744 29.6363L54.167 26.9756Z" fill="#855451"/>
</svg>
