<svg width="20" height="20" viewBox="0 0 20 20" fill="none" xmlns="http://www.w3.org/2000/svg">
<path d="M10 20C15.5228 20 20 15.5228 20 10C20 4.47715 15.5228 0 10 0C4.47715 0 0 4.47715 0 10C0 15.5228 4.47715 20 10 20Z" fill="#31373C"/>
<path d="M8.16634 14.5837C7.84234 14.5837 7.89742 14.4613 7.78567 14.1528L6.83301 11.0176L14.1663 6.66699" fill="#C28C66"/>
<path d="M8.16699 14.5836C8.41699 14.5836 8.52741 14.4693 8.66699 14.3336L10.0003 13.0371L8.33716 12.0342" fill="#EAD0A1"/>
<path d="M8.33726 12.0338L12.3673 15.0112C12.8272 15.265 13.159 15.1336 13.2736 14.5843L14.914 6.85407C15.0819 6.18073 14.6573 5.87523 14.2173 6.07498L4.58484 9.78923C3.92734 10.053 3.93126 10.4198 4.46501 10.5832L6.93693 11.3548L12.6597 7.7444C12.9298 7.58057 13.1778 7.66857 12.9743 7.84923" fill="url(#paint0_linear)"/>
<defs>
<linearGradient id="paint0_linear" x1="9.51434" y1="6.01465" x2="9.51434" y2="15.1355" gradientUnits="userSpaceOnUse">
<stop stop-color="#EAD0A1"/>
</linearGradient>
</defs>
</svg>
