<svg width="748" height="704" viewBox="0 0 748 704" fill="none" xmlns="http://www.w3.org/2000/svg">
<path d="M33.6025 204.071C44.548 136.866 105.788 -75.2635 438.685 27.7376C461.709 34.8576 485.555 39.0977 509.662 40.409C606.042 45.6907 853.48 78.8276 697.827 283.065C507.06 533.38 443.828 260.112 279.309 322.783C250.893 333.604 101.691 503.454 31.2864 397.169C-20.6143 318.812 4.01611 261.644 20.5402 237.012C27.227 227.073 31.6849 215.86 33.6025 204.071Z" fill="url(#paint0_linear)"/>
<path d="M312.744 694.638C312.03 694.181 311.481 693.424 311.202 692.512C310.923 691.599 310.933 690.595 311.231 689.691C317.12 671.979 343.553 581.646 320.921 444.944C320.921 444.944 304.742 347.499 329.924 266.022C354.217 187.421 355.668 120.909 354.034 97.1705C353.928 95.6257 354.504 94.1109 355.776 93.2278C359.376 90.7286 367.252 86.7544 372.899 94.7378C372.899 94.7378 382.964 174.666 362.071 265.255C341.177 355.844 366.51 466.219 366.51 466.219C366.51 466.219 394.018 540.735 380.038 681.542C379.879 683.169 379.261 684.681 378.288 685.827C372.161 693.044 347.879 717.086 312.744 694.638Z" fill="url(#paint1_radial)"/>
<path d="M343.954 490.835C344.131 495.361 343.866 501.29 341.846 505.771C341.135 507.249 340.131 508.496 338.923 509.403C337.715 510.31 336.339 510.849 334.916 510.973C333.493 511.096 332.066 510.801 330.761 510.112C329.456 509.424 328.312 508.363 327.429 507.023C317.329 492.087 283.483 449.767 217.848 442.586C137.86 433.82 136.029 387.608 96.3883 357.449C96.3883 357.449 63.855 322.749 17.7883 304.976C17.5134 304.862 17.2839 304.629 17.1441 304.324C17.0044 304.019 16.9645 303.663 17.0321 303.325C17.0998 302.986 17.2701 302.69 17.5101 302.493C17.7501 302.297 18.0427 302.214 18.3311 302.26C41.2881 306.969 63.404 316.327 83.726 329.93C84.0573 330.145 84.4384 330.225 84.8112 330.158C85.1841 330.09 85.5282 329.879 85.7913 329.556C86.0543 329.233 86.2219 328.816 86.2684 328.369C86.3149 327.922 86.2378 327.469 86.0489 327.079C83.3346 321.602 77.2117 312.655 63.5268 301.973C56.9521 296.897 51.4096 290.129 47.3043 282.164C44.0977 275.888 42.0525 270.305 46.3322 272.478C48.3532 273.54 50.0319 275.355 51.1169 277.653C55.3779 286.359 61.6508 293.41 69.1826 297.96C83.1326 306.288 89.8236 323.292 94.2927 331.635C98.7617 339.978 131.661 384.636 128.871 364.962C126.081 345.289 112.977 309.291 105.162 293.977C97.3478 278.664 107.397 286.313 109.354 291.971C109.354 291.971 127.419 335.92 132.785 361.643C137.431 383.972 173.953 408.655 173.953 408.655C173.953 408.655 188.017 422.324 239.891 427.318C286.841 431.844 325.51 462.124 339.624 479.278C342.21 482.361 343.752 486.476 343.954 490.835V490.835Z" fill="url(#paint2_radial)"/>
<path d="M324 461C324 461 304.954 423.037 253.788 383.963C252.147 382.702 250.314 381.787 248.661 380.467C245.585 377.931 235.216 369.393 217.618 327.558C214.834 320.915 212.875 313.842 211.799 306.551C209.236 289.445 199.43 250.521 162.363 212.828C162.363 212.828 149.38 199.803 160.505 202.324C160.505 202.324 202.801 240.287 212.094 267.777C221.386 295.267 230.32 345.534 257.197 366.812C284.075 388.089 318.04 416.884 318.04 416.884" fill="url(#paint3_radial)"/>
<path d="M223.338 341C223.338 341 214.914 337.581 187.715 330.954C184.657 330.214 181.701 328.961 178.936 327.232C171.422 322.674 164.392 317.056 157.996 310.5C157.082 309.51 156.043 308.698 154.918 308.094C152.219 306.687 148.178 305.28 153.917 313.178C161.847 324.116 176.605 336.582 228 351" fill="url(#paint4_radial)"/>
<path d="M235.285 93.0916C235.212 92.3988 234.97 91.7462 234.587 91.2143C234.205 90.6824 233.699 90.2944 233.133 90.0982C225.994 87.9579 235.069 121.529 235.069 121.529C244.676 163.198 245.195 179.437 280.837 240.578C301.771 276.499 309.011 296.87 311.416 307.616C311.665 308.68 311.659 309.805 311.401 310.866C311.143 311.927 310.641 312.882 309.952 313.628C309.263 314.373 308.414 314.878 307.497 315.087C306.58 315.297 305.633 315.203 304.759 314.815C268.307 299.504 256.257 289.88 252.574 286.168C251.214 284.85 249.776 283.65 248.271 282.576C233.234 271.455 233.222 248.975 232.779 235.175C232.487 225.671 230.779 226.015 229.614 227.407C228.908 228.302 228.492 229.463 228.437 230.685C226.83 257.97 230.045 267.714 231.779 270.902C232.473 272.165 233.066 273.503 233.551 274.898C236.892 284.507 245.385 293.008 253.675 299.444C262.47 306.074 272.137 310.925 282.28 313.797C300.215 319.141 313.922 333.704 320.542 341.831C322.525 344.348 325.134 346.056 327.991 346.707C330.848 347.358 333.806 346.919 336.439 345.453C340.464 343.088 343.476 338.239 341.236 328.495C322.042 286.681 300.837 246.203 277.723 207.261C244.22 151.119 236.563 102.925 235.285 93.0916Z" fill="url(#paint5_radial)"/>
<path d="M250.588 158.901C244.002 151.617 220.075 126.749 202.81 131.63C202.575 131.716 202.369 131.885 202.224 132.111C202.078 132.338 202 132.61 202 132.89C202 133.169 202.078 133.442 202.224 133.668C202.369 133.894 202.575 134.063 202.81 134.15C210.209 137.064 228.507 145.12 236.978 157.197C245.048 168.72 249.658 168.298 251.466 164.918C251.933 163.948 252.101 162.829 251.941 161.74C251.782 160.65 251.306 159.652 250.588 158.901Z" fill="#C28C66"/>
<path d="M302.938 260.447C302.938 260.447 309.129 147.357 304.462 132.486C304.462 132.486 292.484 86.6142 301.144 90.1998C301.144 90.1998 315.293 121.411 313.904 157.721C312.515 194.031 313.904 276 313.904 276" fill="url(#paint6_radial)"/>
<path d="M373 134.326C373 134.326 396.39 73.2298 392.856 52.0536C392.856 52.0536 389.76 35.765 393.473 37.075C393.473 37.075 414.592 56.1373 374.266 149" fill="url(#paint7_radial)"/>
<path d="M372.834 197.588C372.834 197.588 391.902 149.238 419.056 106.387C419.056 106.387 459.306 58.8969 465.608 43.2735C465.608 43.2735 471.643 38.7406 471.998 46.7789C472.352 54.8172 430.065 109.212 422.409 123.551C414.754 137.89 379.945 221.552 368 235" fill="url(#paint8_radial)"/>
<path d="M397.189 179.575C397.189 179.575 451.859 151.174 462.213 114.932C462.213 114.932 464.6 102.852 466.987 110.585C466.987 110.585 469.789 143.852 392 191" fill="url(#paint9_radial)"/>
<path d="M355 396.714C355 396.714 413.659 392.562 466.298 293.422C466.298 293.422 486.851 248.988 589.372 214.813C589.372 214.813 633.436 203.953 691.817 137.874C691.817 137.874 705.729 129.707 691.817 147.471C677.904 165.235 657.327 204.555 600.324 229.614C543.322 254.674 512.184 261.518 476.733 320.211C441.282 378.904 436.26 400.203 358.314 426" fill="url(#paint10_radial)"/>
<path d="M419.02 370.824C418.683 370.797 418.356 370.679 418.065 370.478C417.774 370.276 417.527 369.998 417.344 369.665C417.161 369.332 417.047 368.953 417.012 368.559C416.976 368.165 417.02 367.767 417.14 367.397C420.077 358.158 428.18 328.525 428.592 281.35C428.592 281.35 428.592 261.725 449.049 214.928C453.686 204.542 457.023 193.428 458.955 181.928C459.093 180.929 459.501 180.009 460.121 179.304C460.741 178.6 461.539 178.149 462.395 178.018C464.237 177.807 465.938 179.347 464.405 187.076C461.622 201.221 442.118 255.853 442.582 271.794C443.046 287.736 442.582 340.511 437.944 354.112C433.564 366.959 433.719 372.046 419.02 370.824Z" fill="url(#paint11_radial)"/>
<path d="M436.001 294.05C436.042 292.84 436.295 291.654 436.744 290.567C437.193 289.48 437.827 288.516 438.607 287.737C443.106 283.137 453.458 271.807 459.01 259.852C465.765 245.321 485.115 235.927 490.591 227.768C491.035 227.072 491.641 226.547 492.334 226.256C493.026 225.965 493.776 225.921 494.489 226.13C496.081 226.651 497.108 228.289 493.913 233.053C488.085 241.703 466.341 252.572 459.674 272.566C453.007 292.561 444.096 296.134 441.227 297.697C439.159 298.814 435.95 296.67 436.001 294.05Z" fill="url(#paint12_radial)"/>
<path d="M435.142 328.366C435.142 328.366 411.752 298.497 403.964 285.293C396.482 272.594 394.513 259.39 389.321 263.905C383.131 269.282 387.492 273.975 387.492 273.975L388.515 275.743C388.515 275.743 418.901 339.431 430.167 337.975C439.055 336.802 435.142 328.366 435.142 328.366Z" fill="url(#paint13_radial)"/>
<path d="M515.025 256.987C514.635 256.946 514.261 256.781 513.941 256.509C513.622 256.237 513.367 255.868 513.203 255.44C513.04 255.011 512.973 254.538 513.01 254.068C513.047 253.598 513.186 253.149 513.413 252.765C518.489 244.105 532.649 221.017 542.839 211.302C554.17 200.484 568.051 182.507 571.579 188.03C571.939 188.687 572.076 189.486 571.96 190.261C571.844 191.036 571.485 191.728 570.957 192.192C563.813 198.541 531.799 227.902 528.868 246.981C528.663 248.431 528.096 249.77 527.244 250.822C525.699 252.855 523.806 254.459 521.696 255.523C519.587 256.588 517.31 257.087 515.025 256.987V256.987Z" fill="#C28C66"/>
<path d="M597.707 218.547C597.357 218.458 597.032 218.265 596.76 217.988C596.488 217.71 596.278 217.356 596.148 216.957C596.018 216.557 595.973 216.126 596.016 215.701C596.059 215.275 596.19 214.869 596.396 214.52C600.49 206.329 612.849 180.41 610.677 169.749C608.08 156.992 635.568 125.562 635.568 125.562C635.568 125.562 651.284 99.9728 655.454 105.887C655.836 106.482 656.029 107.22 655.997 107.97C655.965 108.72 655.71 109.431 655.279 109.975C649.562 117.671 622.249 155.315 623.647 170.363C624.72 182.012 619.552 197.465 616.269 205.85C614.421 210.685 611.218 214.589 607.219 216.885C604.323 218.547 600.852 219.67 597.707 218.547Z" fill="#C28C66"/>
<path d="M655.458 187.581C655.458 187.581 699.514 184.926 723.567 153.854C723.567 153.854 736.489 135.015 737 146.976C737 146.976 710.85 192.83 650.09 196.993C649.605 197.03 649.12 196.923 648.68 196.682C648.239 196.44 647.857 196.073 647.568 195.612C647.28 195.151 647.094 194.612 647.027 194.044C646.961 193.476 647.016 192.898 647.188 192.362C648.109 190.009 650.269 187.551 655.458 187.581Z" fill="#C28C66"/>
<path d="M499.504 288.168C499.504 288.168 505.365 290.522 552.164 269.116C552.164 269.116 575.709 257.891 621.543 257.346C621.543 257.346 645.05 254.654 654.945 250.961C664.84 247.269 667.39 255.257 658.751 257.346C650.112 259.436 621.835 266.174 586.809 270.896C551.783 275.619 522.06 310.148 483 308.971" fill="#C28C66"/>
<path d="M529.428 291.734C533.691 291.954 543.282 290.883 564.448 285.866C566.601 285.353 568.792 285.088 570.989 285.074C580.795 285.074 605.643 284.194 612.918 288.492C613.319 288.734 613.637 289.126 613.823 289.604C614.008 290.082 614.05 290.618 613.94 291.126C613.83 291.634 613.576 292.085 613.219 292.406C612.861 292.726 612.421 292.898 611.969 292.893C602.1 292.585 565.473 291.895 549.658 297.895C539.616 301.796 528.782 302.027 518.623 298.555C518.465 298.496 518.324 298.387 518.216 298.242C518.108 298.096 518.037 297.918 518.011 297.728C517.985 297.538 518.005 297.344 518.068 297.166C518.131 296.988 518.236 296.834 518.37 296.721L520.571 294.756C523.141 292.609 526.265 291.544 529.428 291.734V291.734Z" fill="#C28C66"/>
<defs>
<linearGradient id="paint0_linear" x1="374" y1="0" x2="374" y2="432" gradientUnits="userSpaceOnUse">
<stop stop-color="#B8BB9C"/>
<stop offset="1" stop-color="#B8BB9C" stop-opacity="0"/>
</linearGradient>
<radialGradient id="paint1_radial" cx="0" cy="0" r="1" gradientUnits="userSpaceOnUse" gradientTransform="translate(347.5 397) rotate(90) scale(307 36.5)">
<stop offset="0.333333" stop-color="#C28C66"/>
<stop offset="1" stop-color="#C28C66" stop-opacity="0"/>
</radialGradient>
<radialGradient id="paint2_radial" cx="0" cy="0" r="1" gradientUnits="userSpaceOnUse" gradientTransform="translate(180.5 391.5) rotate(90) scale(119.5 163.5)">
<stop stop-color="#C28C66" stop-opacity="0"/>
<stop offset="0.59375" stop-color="#C28C66"/>
</radialGradient>
<radialGradient id="paint3_radial" cx="0" cy="0" r="1" gradientUnits="userSpaceOnUse" gradientTransform="translate(240 331.5) rotate(90) scale(129.5 84)">
<stop stop-color="#C28C66" stop-opacity="0"/>
<stop offset="0.59375" stop-color="#C28C66"/>
</radialGradient>
<radialGradient id="paint4_radial" cx="0" cy="0" r="1" gradientUnits="userSpaceOnUse" gradientTransform="translate(189.5 329) rotate(90) scale(22 38.5)">
<stop stop-color="#C28C66" stop-opacity="0"/>
<stop offset="0.59375" stop-color="#C28C66"/>
</radialGradient>
<radialGradient id="paint5_radial" cx="0" cy="0" r="1" gradientUnits="userSpaceOnUse" gradientTransform="translate(285 218.5) rotate(90) scale(128.5 57)">
<stop stop-color="#C28C66" stop-opacity="0"/>
<stop offset="0.59375" stop-color="#C28C66"/>
</radialGradient>
<radialGradient id="paint6_radial" cx="0" cy="0" r="1" gradientUnits="userSpaceOnUse" gradientTransform="translate(306 183) rotate(90) scale(93 8)">
<stop stop-color="#C28C66" stop-opacity="0"/>
<stop offset="0.59375" stop-color="#C28C66"/>
</radialGradient>
<radialGradient id="paint7_radial" cx="0" cy="0" r="1" gradientUnits="userSpaceOnUse" gradientTransform="translate(386 93) rotate(90) scale(56 13)">
<stop stop-color="#C28C66" stop-opacity="0"/>
<stop offset="0.59375" stop-color="#C28C66"/>
</radialGradient>
<radialGradient id="paint8_radial" cx="0" cy="0" r="1" gradientUnits="userSpaceOnUse" gradientTransform="translate(420 138.5) rotate(90) scale(96.5 52)">
<stop stop-color="#C28C66" stop-opacity="0"/>
<stop offset="0.59375" stop-color="#C28C66"/>
</radialGradient>
<radialGradient id="paint9_radial" cx="0" cy="0" r="1" gradientUnits="userSpaceOnUse" gradientTransform="translate(429.5 149.5) rotate(90) scale(41.5 37.5)">
<stop stop-color="#C28C66" stop-opacity="0"/>
<stop offset="0.59375" stop-color="#C28C66"/>
</radialGradient>
<radialGradient id="paint10_radial" cx="0" cy="0" r="1" gradientUnits="userSpaceOnUse" gradientTransform="translate(526.5 281) rotate(90) scale(145 171.5)">
<stop stop-color="#C28C66" stop-opacity="0"/>
<stop offset="0.59375" stop-color="#C28C66"/>
</radialGradient>
<radialGradient id="paint11_radial" cx="0" cy="0" r="1" gradientUnits="userSpaceOnUse" gradientTransform="translate(441 274.5) rotate(90) scale(96.5 24)">
<stop stop-color="#C28C66" stop-opacity="0"/>
<stop offset="0.59375" stop-color="#C28C66"/>
</radialGradient>
<radialGradient id="paint12_radial" cx="0" cy="0" r="1" gradientUnits="userSpaceOnUse" gradientTransform="translate(466 262) rotate(90) scale(36 30)">
<stop stop-color="#C28C66" stop-opacity="0"/>
<stop offset="0.59375" stop-color="#C28C66"/>
</radialGradient>
<radialGradient id="paint13_radial" cx="0" cy="0" r="1" gradientUnits="userSpaceOnUse" gradientTransform="translate(411 300.5) rotate(90) scale(37.5 25)">
<stop stop-color="#C28C66" stop-opacity="0"/>
<stop offset="0.59375" stop-color="#C28C66"/>
</radialGradient>
</defs>
</svg>
